<svg width="20" height="20" viewBox="0 0 20 20" fill="none" xmlns="http://www.w3.org/2000/svg">
<path d="M9.16667 1.66669H2.5V3.33335H9.16667V1.66669Z" fill="#47464E"/>
<path d="M5 9.16669H6.66667V5.83335H9.16667V4.16669H2.5V5.83335H5V9.16669Z" fill="#47464E"/>
<path d="M16.8182 10.3365L10.3364 16.8182L11.5149 17.9967L17.9967 11.515L16.8182 10.3365Z" fill="#47464E"/>
<path d="M12.0833 13.3334C12.7736 13.3334 13.3333 12.7737 13.3333 12.0834C13.3333 11.393 12.7736 10.8334 12.0833 10.8334C11.3929 10.8334 10.8333 11.393 10.8333 12.0834C10.8333 12.7737 11.3929 13.3334 12.0833 13.3334Z" fill="#47464E"/>
<path d="M16.25 17.5C16.9404 17.5 17.5 16.9404 17.5 16.25C17.5 15.5596 16.9404 15 16.25 15C15.5596 15 15 15.5596 15 16.25C15 16.9404 15.5596 17.5 16.25 17.5Z" fill="#47464E"/>
<path d="M12.9166 9.16669C14.0666 9.16669 14.9999 8.23335 14.9999 7.08335V3.33335H17.4999V1.66669H14.1666V5.42502C13.8166 5.15835 13.3916 5.00002 12.9166 5.00002C11.7666 5.00002 10.8333 5.93335 10.8333 7.08335C10.8333 8.23335 11.7666 9.16669 12.9166 9.16669Z" fill="#47464E"/>
<path d="M8.11671 13.3001L6.94171 14.4751L6.35005 13.8834L6.64172 13.5917C7.45838 12.7751 7.45838 11.4584 6.64172 10.6417C6.23338 10.2334 5.70005 10.0334 5.16671 10.0334C4.63338 10.0334 4.10005 10.2334 3.69172 10.6417C2.87505 11.4584 2.87505 12.7751 3.69172 13.5917L3.98338 13.8834L3.10005 14.7667C2.28338 15.5834 2.28338 16.9001 3.10005 17.7167C3.51672 18.1334 4.05005 18.3334 4.58338 18.3334C5.11672 18.3334 5.65005 18.1334 6.05838 17.7251L6.94171 16.8417L8.11671 18.0167L9.29171 16.8417L8.11671 15.6667L9.29171 14.4917L8.11671 13.3001ZM4.87505 11.8334C4.97505 11.7334 5.09171 11.7084 5.16671 11.7084C5.24171 11.7084 5.35838 11.7334 5.45838 11.8334C5.61672 12.0001 5.61672 12.2584 5.45838 12.4251L5.16671 12.7167L4.87505 12.4167C4.71672 12.2584 4.71672 11.9917 4.87505 11.8334ZM4.87505 16.5417C4.77505 16.6417 4.65838 16.6667 4.58338 16.6667C4.50838 16.6667 4.39172 16.6417 4.29172 16.5417C4.13338 16.3834 4.13338 16.1167 4.29172 15.9501L5.17505 15.0667L5.76672 15.6584L4.87505 16.5417Z" fill="#47464E"/>
</svg>
